<svg xmlns="http://www.w3.org/2000/svg" pointer-events="none" class="leaflet-zoom-animated" width="1454" height="839" viewBox="-121 -70 1454 839" style="transform: translate3d(-121px, -70px, 0px);"><g><path class="leaflet-interactive" stroke="black" stroke-opacity="1" stroke-width="2" stroke-linecap="round" stroke-linejoin="round" fill="#fff" fill-opacity="0.2" fill-rule="evenodd" d="M511 399L507 399L497 395L493 400L491 399L488 392L486 392L487 393L484 399L486 399L485 401L478 403L477 412L479 418L479 434L481 434L480 438L482 438L481 443L483 447L481 447L483 447L483 449L479 452L480 453L478 451L471 451L471 455L469 458L464 455L464 457L461 459L449 461L429 456L425 459L412 459L408 462L408 466L403 473L406 475L409 474L414 477L416 475L415 476L417 480L419 480L420 482L418 483L416 494L419 508L422 509L422 511L430 511L432 513L432 509L437 509L436 504L440 504L440 507L442 508L441 509L451 510L451 519L453 519L456 526L455 528L452 528L452 536L455 543L454 555L456 555L456 557L454 556L454 558L453 557L451 561L463 568L462 571L460 571L460 579L458 579L451 587L451 592L453 592L460 586L466 589L468 594L471 595L469 591L471 589L473 591L472 588L477 585L479 581L484 581L490 577L492 580L495 580L496 578L498 581L500 581L498 585L502 587L503 586L505 591L501 597L501 606L497 607L500 610L510 610L513 611L513 613L517 611L518 613L522 612L524 609L526 613L528 613L528 608L533 607L536 612L537 611L539 620L548 625L552 630L554 630L552 641L555 653L574 654L581 654L587 652L603 636L643 612L674 599L691 594L784 595L788 596L791 599L798 611L808 606L802 590L814 580L818 570L816 530L811 510L805 496L799 488L777 461L765 450L750 433L726 396L718 387L671 356L651 351L645 348L639 344L643 344L641 342L635 339L604 314L602 312L602 309L580 298L572 303L573 304L571 304L570 301L570 303L566 301L562 308L561 307L554 310L553 309L548 313L548 311L546 313L544 312L545 311L544 312L542 306L538 311L539 312L535 314L533 314L533 312L529 315L529 317L526 317L522 320L521 324L508 327L508 330L510 332L514 332L515 335L514 334L508 337L513 342L510 344L511 345L507 350L509 352L496 357L499 360L494 360L494 366L497 367L499 369L497 369L498 370L502 370L502 388L506 388L505 386L508 386L513 396L511 398zM810 254L715 229L689 219L685 220L674 215L673 217L665 214L660 211L656 206L655 207L642 200L636 195L624 194L612 188L604 177L606 176L605 173L602 171L595 161L568 144L551 148L528 160L521 166L498 193L508 195L560 254L590 281L599 267L602 265L613 265L654 290L676 301L703 307L720 316L758 332L773 334L779 334L789 331L812 319L816 313L817 306L817 298L815 291zM738 385L741 384L745 386L746 384L745 369L742 358L735 350L725 343L720 342L709 336L668 323L664 319L660 309L644 306L640 308L640 310L653 320L663 331L670 334L726 370L735 384zM907 338L908 339L908 337zM747 365L748 379L754 386L761 391L779 392L794 396L825 396L845 403L854 408L857 405L864 386L861 380L834 379L801 373L763 357L758 357L755 355L745 354L743 356L746 362zM683 327L685 327L686 325L685 322L676 314L668 312L664 313L668 319L679 326zM610 651L611 651zM798 425L799 437L804 449L808 450L817 448L823 437L823 424L812 419L801 419L799 421zM609 647L607 647L610 649L610 647zM776 414L776 421L783 431L787 434L791 433L791 417L779 413zM603 642L604 642z" name="上海市" id="上海市"/><path class="leaflet-interactive" stroke="#333" stroke-opacity="1" stroke-width="1" stroke-linecap="round" stroke-linejoin="round" stroke-dasharray="1,6" fill="#eee" fill-opacity="0.5" fill-rule="evenodd" d="M621 423L623 430L625 430L626 435L628 436L635 434L640 427L638 420L634 416L635 413L626 415L623 414L625 421L621 421z" name="黄浦区" id="黄浦区"/><path class="leaflet-interactive" stroke="#333" stroke-opacity="1" stroke-width="1" stroke-linecap="round" stroke-linejoin="round" stroke-dasharray="1,6" fill="#eee" fill-opacity="0.5" fill-rule="evenodd" d="M621 423L615 425L614 430L608 435L605 435L606 439L598 441L599 442L597 445L598 449L602 449L599 450L599 452L602 450L607 461L614 462L615 466L613 468L616 469L619 467L617 472L621 474L623 473L623 470L626 466L626 463L621 454L626 447L624 442L625 439L628 437L626 435L625 430L623 430L622 426z" name="徐汇区" id="徐汇区"/><path class="leaflet-interactive" stroke="#333" stroke-opacity="1" stroke-width="1" stroke-linecap="round" stroke-linejoin="round" stroke-dasharray="1,6" fill="#eee" fill-opacity="0.5" fill-rule="evenodd" d="M615 425L613 421L610 421L610 419L608 421L606 419L606 421L602 423L592 423L585 419L581 413L578 415L581 419L579 421L581 421L579 424L578 435L576 436L578 440L583 438L585 439L585 437L588 438L597 435L608 435L608 433L614 430L614 427z" name="长宁区" id="长宁区"/><path class="leaflet-interactive" stroke="#333" stroke-opacity="1" stroke-width="1" stroke-linecap="round" stroke-linejoin="round" stroke-dasharray="1,6" fill="#eee" fill-opacity="0.5" fill-rule="evenodd" d="M621 423L621 421L625 421L623 414L631 414L629 410L630 408L623 399L622 393L624 390L625 380L621 380L618 382L617 380L614 380L612 381L612 387L610 387L610 389L607 392L609 396L609 401L611 400L616 403L619 407L619 413L613 416L610 419L610 421L611 422L613 420L615 425L619 424z" name="静安区" id="静安区"/><path class="leaflet-interactive" stroke="#333" stroke-opacity="1" stroke-width="1" stroke-linecap="round" stroke-linejoin="round" stroke-dasharray="1,6" fill="#eee" fill-opacity="0.5" fill-rule="evenodd" d="M584 416L585 419L591 423L596 424L606 422L606 420L608 421L613 416L619 413L619 407L616 403L611 400L607 404L602 400L603 399L600 398L602 395L598 393L598 391L591 394L585 392L587 388L583 388L579 390L579 392L577 391L574 394L578 400L589 402L585 404L586 406L593 407L592 413L590 413L589 411L586 415L584 415z" name="普陀区" id="普陀区"/><path class="leaflet-interactive" stroke="#333" stroke-opacity="1" stroke-width="1" stroke-linecap="round" stroke-linejoin="round" stroke-dasharray="1,6" fill="#eee" fill-opacity="0.5" fill-rule="evenodd" d="M631 384L625 382L624 390L622 393L624 400L630 407L629 409L631 414L643 411L639 401L635 396L638 393L637 391L633 392L632 387z" name="虹口区" id="虹口区"/><path class="leaflet-interactive" stroke="#333" stroke-opacity="1" stroke-width="1" stroke-linecap="round" stroke-linejoin="round" stroke-dasharray="1,6" fill="#eee" fill-opacity="0.5" fill-rule="evenodd" d="M643 411L650 410L658 404L662 399L662 395L659 387L659 377L657 374L646 369L645 371L639 369L634 376L636 377L636 384L631 384L633 392L637 391L638 393L635 396L643 409z" name="杨浦区" id="杨浦区"/><path class="leaflet-interactive" stroke="#333" stroke-opacity="1" stroke-width="1" stroke-linecap="round" stroke-linejoin="round" stroke-dasharray="1,6" fill="#eee" fill-opacity="0.5" fill-rule="evenodd" d="M585 526L598 521L604 521L615 514L633 510L635 517L643 513L645 516L644 515L644 517L648 519L653 519L655 521L656 519L663 516L661 511L664 509L663 505L660 507L659 506L657 509L656 508L658 506L659 498L657 495L652 497L652 494L654 490L657 488L656 487L664 482L657 482L654 480L660 477L661 475L659 473L659 469L655 468L654 470L650 466L645 468L639 465L639 467L637 468L636 465L634 466L633 464L630 465L630 469L624 469L623 473L621 474L617 472L619 470L619 467L614 469L614 462L608 462L602 450L599 452L599 450L602 449L598 449L598 441L605 439L605 435L597 435L588 438L585 437L585 439L579 440L576 436L578 435L578 424L581 421L579 421L581 419L580 417L578 415L576 418L570 420L561 418L557 411L558 409L547 406L542 414L545 414L548 418L548 423L550 425L549 426L551 430L556 434L558 434L562 430L567 436L581 465L585 470L583 471L583 474L587 474L589 479L590 483L588 483L587 487L583 490L577 491L576 510L580 510L574 519L573 524L583 527z" name="闵行区" id="闵行区"/><path class="leaflet-interactive" stroke="#333" stroke-opacity="1" stroke-width="1" stroke-linecap="round" stroke-linejoin="round" stroke-dasharray="1,6" fill="#eee" fill-opacity="0.5" fill-rule="evenodd" d="M610 401L609 393L607 392L610 389L610 387L612 387L613 380L617 380L618 382L624 380L625 382L636 384L636 378L634 376L639 369L645 371L646 369L642 367L638 361L639 355L645 348L639 344L643 344L641 342L638 341L639 342L617 325L602 312L602 309L592 303L580 298L572 303L573 304L571 304L570 301L570 303L566 301L564 304L566 305L571 314L569 315L571 317L570 321L573 323L574 329L576 329L577 332L576 341L569 343L569 347L572 347L571 351L575 355L574 356L579 363L576 369L581 373L579 375L581 378L581 382L575 388L576 391L577 390L578 392L583 388L586 388L585 392L591 394L594 393L595 391L598 391L598 393L600 393L601 395L600 398L604 400L607 404z" name="宝山区" id="宝山区"/><path class="leaflet-interactive" stroke="#333" stroke-opacity="1" stroke-width="1" stroke-linecap="round" stroke-linejoin="round" stroke-dasharray="1,6" fill="#eee" fill-opacity="0.5" fill-rule="evenodd" d="M511 399L510 403L512 401L513 403L514 402L516 404L516 408L518 407L520 409L523 408L526 410L530 406L532 406L533 408L538 405L549 407L551 406L554 409L557 409L561 418L570 420L576 418L579 414L581 414L580 413L582 413L582 415L584 416L584 414L586 414L589 411L590 413L592 413L593 407L588 407L585 404L589 402L578 400L576 395L574 395L577 391L575 388L582 380L579 376L580 371L576 367L579 364L574 356L575 355L572 351L572 347L570 347L569 343L576 341L577 332L576 329L574 329L573 323L571 323L570 321L571 317L569 315L571 314L566 306L564 305L562 308L561 307L554 310L553 309L548 313L548 311L546 313L544 312L545 311L544 312L542 306L538 311L539 312L535 314L533 314L533 312L529 315L529 317L526 317L522 320L521 324L508 327L508 330L510 332L514 332L515 335L514 334L508 337L513 342L510 344L511 345L507 350L509 352L496 357L499 360L494 360L494 366L497 367L499 369L497 369L498 370L502 370L502 388L506 388L505 386L508 386L513 396L511 398z" name="嘉定区" id="嘉定区"/><path class="leaflet-interactive" stroke="#333" stroke-opacity="1" stroke-width="1" stroke-linecap="round" stroke-linejoin="round" stroke-dasharray="1,6" fill="#eee" fill-opacity="0.5" fill-rule="evenodd" d="M662 517L679 516L681 520L693 519L707 521L712 523L721 530L724 535L731 538L733 541L732 542L738 546L739 551L737 565L738 567L736 567L734 575L735 580L744 594L788 596L798 611L808 606L802 590L814 580L817 575L818 559L816 530L811 510L805 496L777 461L765 450L750 433L726 396L718 387L671 356L651 351L645 348L639 355L638 361L642 367L657 374L659 377L659 387L662 398L660 402L652 409L637 412L634 414L634 416L640 424L640 427L635 434L625 438L624 441L626 447L621 456L626 463L624 469L629 469L629 467L633 464L634 466L636 465L637 468L639 467L639 465L641 465L645 467L650 466L654 470L656 468L659 469L658 470L661 477L656 478L654 480L656 482L664 482L658 485L656 489L654 489L652 496L654 497L657 495L659 497L658 506L656 508L657 509L659 506L660 507L663 505L664 508L662 511L662 516zM798 425L799 437L804 449L808 450L817 448L823 437L823 424L812 419L801 419L799 421zM776 414L776 421L783 431L787 434L791 433L791 417L779 413z" name="浦东新区" id="浦东新区"/><path class="leaflet-interactive" stroke="#333" stroke-opacity="1" stroke-width="1" stroke-linecap="round" stroke-linejoin="round" stroke-dasharray="1,6" fill="#eee" fill-opacity="0.5" fill-rule="evenodd" d="M454 538L454 555L456 555L456 557L454 556L454 558L453 557L451 561L463 568L462 571L460 571L460 579L458 579L451 587L451 592L453 592L460 586L466 589L468 594L471 595L469 591L471 589L473 591L472 588L477 585L479 581L484 581L490 577L492 580L495 580L496 578L498 581L500 581L498 585L502 587L503 586L505 591L501 597L501 606L497 607L503 611L513 611L513 613L517 611L518 613L522 612L524 609L526 613L528 613L528 608L533 607L536 612L537 611L539 620L548 625L552 630L554 630L552 641L555 653L581 654L587 652L603 636L629 620L614 594L608 593L607 595L605 592L602 592L602 587L600 587L597 590L596 587L594 587L594 568L587 564L585 555L583 553L577 556L571 554L563 555L562 551L560 552L560 561L555 561L552 556L545 555L543 551L544 552L544 550L542 548L538 548L536 546L532 550L526 552L518 553L515 550L512 550L512 554L510 555L505 551L506 557L503 559L498 558L496 560L495 559L499 550L493 550L491 548L487 554L491 556L490 558L484 556L480 558L479 557L470 559L469 557L467 558L467 556L464 555L466 540L461 542L458 537L458 539L456 539L456 537zM610 651L611 651zM609 647L607 647L610 649L610 647zM603 642L604 642z" name="金山区" id="金山区"/><path class="leaflet-interactive" stroke="#333" stroke-opacity="1" stroke-width="1" stroke-linecap="round" stroke-linejoin="round" stroke-dasharray="1,6" fill="#eee" fill-opacity="0.5" fill-rule="evenodd" d="M573 447L571 450L570 448L557 452L555 454L559 457L557 460L552 459L550 460L550 462L549 460L545 459L544 461L542 461L544 462L541 466L536 468L535 466L538 457L531 459L521 456L520 462L522 466L519 466L518 470L515 470L513 474L511 473L511 478L509 476L508 477L507 475L504 475L497 469L492 473L493 474L490 474L491 482L498 484L499 487L501 488L501 491L498 493L489 493L489 490L487 489L485 492L486 495L487 494L490 497L489 499L491 502L490 505L486 506L493 513L493 519L491 519L491 528L490 527L490 530L481 536L477 535L475 533L476 531L474 532L473 529L470 529L471 535L467 536L467 539L465 539L466 544L464 554L467 556L467 558L480 558L484 556L489 558L491 556L487 554L487 552L491 548L499 550L495 559L496 560L498 558L506 558L505 551L512 555L512 551L515 550L517 553L526 552L532 550L536 546L538 548L540 547L545 555L552 556L552 558L555 561L559 561L561 558L560 552L562 551L563 555L571 554L575 556L581 553L582 554L584 552L583 547L587 542L586 540L588 539L586 527L573 524L574 519L580 511L576 511L577 491L585 489L588 483L590 483L587 474L583 474L582 471L585 470L582 467L574 450z" name="松江区" id="松江区"/><path class="leaflet-interactive" stroke="#333" stroke-opacity="1" stroke-width="1" stroke-linecap="round" stroke-linejoin="round" stroke-dasharray="1,6" fill="#eee" fill-opacity="0.5" fill-rule="evenodd" d="M511 399L507 399L497 395L493 400L491 399L488 392L486 392L487 393L484 399L486 399L485 401L478 403L477 412L479 418L479 434L481 434L480 438L482 438L481 443L483 447L481 447L483 447L483 449L479 452L480 453L478 451L471 451L471 455L469 458L464 455L464 457L461 459L449 461L429 456L425 459L412 459L408 462L408 466L404 470L404 474L409 474L414 477L416 475L415 476L417 480L419 480L420 482L418 483L416 494L419 508L422 509L422 511L430 511L432 513L432 509L437 509L436 504L440 504L440 507L442 508L441 509L451 510L451 519L453 519L456 526L455 528L452 528L452 536L453 538L456 537L456 539L458 539L458 537L460 539L460 542L467 539L468 535L471 535L470 529L472 529L474 532L476 531L475 533L481 536L484 534L483 533L487 533L490 530L490 527L491 528L491 519L493 519L493 513L486 506L490 505L491 502L489 499L490 497L487 494L486 495L484 492L487 489L489 489L489 492L491 492L492 494L492 492L501 492L501 488L499 488L498 484L492 482L490 477L490 474L493 474L492 473L496 469L500 473L503 473L504 475L508 477L509 476L510 478L512 474L511 473L515 473L515 470L518 470L518 466L522 466L520 462L521 456L531 459L538 457L535 468L540 467L541 463L544 463L542 461L544 461L545 459L549 460L549 462L551 459L557 460L559 457L555 454L557 452L570 448L571 450L572 449L570 441L563 431L562 430L558 434L556 434L549 426L550 425L548 423L548 418L545 414L543 414L543 411L547 406L545 407L538 405L533 408L532 406L530 406L525 410L523 408L517 408L516 404L514 402L513 403L512 401L511 403L511 401z" name="青浦区" id="青浦区"/><path class="leaflet-interactive" stroke="#333" stroke-opacity="1" stroke-width="1" stroke-linecap="round" stroke-linejoin="round" stroke-dasharray="1,6" fill="#eee" fill-opacity="0.5" fill-rule="evenodd" d="M662 517L657 519L656 521L654 519L648 519L645 517L643 513L636 517L633 510L626 511L624 513L618 513L604 521L598 521L585 526L588 539L587 544L583 546L583 553L585 555L587 564L594 568L595 583L593 583L594 587L596 587L597 590L599 589L599 587L602 587L601 590L602 592L605 592L606 595L608 593L614 594L629 620L656 606L691 594L744 594L735 580L734 575L736 567L738 567L737 565L739 551L738 546L732 543L733 541L731 538L724 535L721 530L712 523L707 521L693 519L681 520L679 516L665 517z" name="奉贤区" id="奉贤区"/><path class="leaflet-interactive" stroke="#333" stroke-opacity="1" stroke-width="1" stroke-linecap="round" stroke-linejoin="round" stroke-dasharray="1,6" fill="#eee" fill-opacity="0.5" fill-rule="evenodd" d="M810 254L715 229L689 219L685 220L674 215L673 217L665 214L660 211L656 206L655 207L642 200L636 195L624 194L612 188L604 177L606 176L605 173L602 171L595 161L568 144L551 148L528 160L521 166L498 193L508 195L560 254L590 281L599 267L602 265L613 265L654 290L676 301L703 307L720 316L758 332L773 334L779 334L789 331L812 319L816 313L817 306L817 298L815 291zM738 385L741 384L745 386L746 384L745 369L742 358L735 350L725 343L720 342L709 336L668 323L664 319L660 309L644 306L640 308L640 310L653 320L663 331L670 334L726 370L735 384zM907 338L908 339L908 337zM747 365L748 379L754 386L761 391L779 392L794 396L825 396L845 403L854 408L857 405L864 386L861 380L834 379L801 373L763 357L758 357L755 355L745 354L743 356L746 362zM683 327L685 327L686 325L685 322L676 314L668 312L664 313L668 319L679 326z" name="崇明区" id="崇明区"/></g></svg>