<svg xmlns="http://www.w3.org/2000/svg" xmlns:xlink="http://www.w3.org/1999/xlink" viewBox="0 0 152.51 260.88"><defs><style>.cls-1{isolation:isolate;}.cls-2,.cls-3,.cls-4,.cls-5,.cls-6,.cls-7,.cls-8,.cls-9{fill:none;stroke-linecap:round;stroke-linejoin:round;}.cls-2{stroke:#b08802;stroke-width:1.01px;}.cls-3{stroke:#b89214;stroke-width:0.84px;}.cls-4{stroke:#c09f28;}.cls-4,.cls-8{stroke-width:0.67px;}.cls-5{stroke:#c8ab41;stroke-width:0.5px;}.cls-6{stroke:#d0b758;stroke-width:0.34px;}.cls-7{stroke:#d6c16d;}.cls-7,.cls-9{stroke-width:0.17px;}.cls-8{stroke:#c09f2b;}.cls-9{stroke:#d9c575;}.cls-10{fill:url(#linear-gradient);}.cls-11{fill:url(#linear-gradient-2);}.cls-12{fill:url(#linear-gradient-3);}.cls-13{fill:url(#linear-gradient-4);}.cls-14{fill:url(#linear-gradient-5);}.cls-15{fill:url(#linear-gradient-6);}.cls-16{fill:url(#linear-gradient-7);}.cls-17,.cls-21,.cls-22,.cls-23,.cls-24{mix-blend-mode:screen;}.cls-17{fill:url(#White_Black);}.cls-18{fill:url(#linear-gradient-8);}.cls-19{fill:url(#linear-gradient-9);}.cls-20{mix-blend-mode:multiply;opacity:0.3;fill:url(#linear-gradient-10);}.cls-21{fill:url(#radial-gradient);}.cls-22{fill:url(#radial-gradient-2);}.cls-23{fill:url(#White_Black-2);}.cls-24{fill:url(#White_Black-4);}.cls-25{fill:#fff;}</style><linearGradient id="linear-gradient" x1="516.9" y1="473.12" x2="503.81" y2="473.12" gradientTransform="translate(-179.38 -139.98) scale(0.5)" gradientUnits="userSpaceOnUse"><stop offset="0" stop-color="#a07d11"/><stop offset="0" stop-color="#a27f13"/><stop offset="0.12" stop-color="#c39f34"/><stop offset="0.24" stop-color="#ddb84f"/><stop offset="0.37" stop-color="#efcb62"/><stop offset="0.49" stop-color="#fad56d"/><stop offset="0.63" stop-color="#fed971"/><stop offset="0.69" stop-color="#f6d169"/><stop offset="0.79" stop-color="#e0bc54"/><stop offset="0.92" stop-color="#bd9931"/><stop offset="1" stop-color="#a07d14"/></linearGradient><linearGradient id="linear-gradient-2" x1="503.92" y1="484.2" x2="518.66" y2="484.2" gradientTransform="translate(-179.38 -139.98) scale(0.5)" gradientUnits="userSpaceOnUse"><stop offset="0.03" stop-color="#a17e15"/><stop offset="0.57" stop-color="#fed971"/><stop offset="0.63" stop-color="#edc75c"/><stop offset="0.8" stop-color="#c49c2a"/><stop offset="0.93" stop-color="#aa820c"/><stop offset="1" stop-color="#a17800"/></linearGradient><linearGradient id="linear-gradient-3" x1="503.92" y1="467.21" x2="518.66" y2="467.21" gradientTransform="translate(-179.38 -139.98) scale(0.5)" gradientUnits="userSpaceOnUse"><stop offset="0.03" stop-color="#9e7b11"/><stop offset="0.57" stop-color="#fed971"/><stop offset="0.58" stop-color="#fad56d"/><stop offset="0.77" stop-color="#c8a43b"/><stop offset="0.92" stop-color="#aa861d"/><stop offset="1" stop-color="#9e7b11"/></linearGradient><linearGradient id="linear-gradient-4" x1="76.26" x2="76.26" y2="85.67" gradientUnits="userSpaceOnUse"><stop offset="0" stop-color="#0bbda7"/><stop offset="1" stop-color="#02745e"/></linearGradient><linearGradient id="linear-gradient-5" x1="76.26" x2="76.26" y2="85.67" gradientUnits="userSpaceOnUse"><stop offset="0" stop-color="#fff"/><stop offset="1" stop-color="#dcd8d5"/></linearGradient><linearGradient id="linear-gradient-6" x1="0.65" y1="184.94" x2="152.51" y2="184.94" gradientUnits="userSpaceOnUse"><stop offset="0" stop-color="#c7a9a6"/><stop offset="0.04" stop-color="#b69392"/><stop offset="0.08" stop-color="#a88283"/><stop offset="0.14" stop-color="#9f7778"/><stop offset="0.22" stop-color="#997072"/><stop offset="0.44" stop-color="#986e70"/><stop offset="0.73" stop-color="#997072"/><stop offset="0.83" stop-color="#9f7778"/><stop offset="0.91" stop-color="#a78283"/><stop offset="0.97" stop-color="#b49392"/><stop offset="1" stop-color="#bd9f9d"/></linearGradient><linearGradient id="linear-gradient-7" x1="93.77" y1="258.52" x2="62.24" y2="122.73" gradientUnits="userSpaceOnUse"><stop offset="0" stop-color="#c0838e"/><stop offset="0.67" stop-color="#c3b0ac"/><stop offset="1" stop-color="#bea9a8"/></linearGradient><linearGradient id="White_Black" x1="130.19" y1="252.45" x2="102.52" y2="216.41" gradientUnits="userSpaceOnUse"><stop offset="0" stop-color="#fff"/><stop offset="1"/></linearGradient><linearGradient id="linear-gradient-8" x1="25.74" y1="184.94" x2="127.42" y2="184.94" gradientTransform="translate(246.62 79.33) rotate(80.65)" xlink:href="#linear-gradient-6"/><linearGradient id="linear-gradient-9" x1="73.05" y1="243" x2="78.2" y2="133.59" gradientUnits="userSpaceOnUse"><stop offset="0" stop-color="#d9babe"/><stop offset="0.98" stop-color="#b9978e"/></linearGradient><linearGradient id="linear-gradient-10" x1="89.53" y1="217.52" x2="127.05" y2="286" gradientTransform="translate(2.12 -3.12) rotate(-0.39)" gradientUnits="userSpaceOnUse"><stop offset="0.02" stop-color="#fff"/><stop offset="0.26" stop-color="#b69092"/><stop offset="1" stop-color="#bb9498"/></linearGradient><radialGradient id="radial-gradient" cx="25.42" cy="116.08" r="90.85" xlink:href="#White_Black"/><radialGradient id="radial-gradient-2" cx="21.39" cy="112.4" r="56.79" xlink:href="#White_Black"/><linearGradient id="White_Black-2" x1="75.39" y1="136.14" x2="76.04" y2="190.19" xlink:href="#White_Black"/><linearGradient id="White_Black-4" x1="75.75" y1="135.21" x2="75.96" y2="153.34" xlink:href="#White_Black"/></defs><g class="cls-1"><g id="图层_2" data-name="图层 2"><g id="图层_1-2" data-name="图层 1"><path class="cls-2" d="M76.26,99.88H69.08L30.86,89.27a1.49,1.49,0,0,1-1.49-1.49v-5.5a1.49,1.49,0,0,1,1.49-1.49h45.4"/><path class="cls-3" d="M76.26,99.88H69.08L30.86,89.27a1.49,1.49,0,0,1-1.49-1.49v-5.5a1.49,1.49,0,0,1,1.49-1.49h45.4"/><path class="cls-4" d="M76.26,99.88H69.08L30.86,89.27a1.49,1.49,0,0,1-1.49-1.49v-5.5a1.49,1.49,0,0,1,1.49-1.49h45.4"/><path class="cls-5" d="M76.26,99.88H69.08L30.86,89.27a1.49,1.49,0,0,1-1.49-1.49v-5.5a1.49,1.49,0,0,1,1.49-1.49h45.4"/><path class="cls-6" d="M76.26,99.88H69.08L30.86,89.27a1.49,1.49,0,0,1-1.49-1.49v-5.5a1.49,1.49,0,0,1,1.49-1.49h45.4"/><path class="cls-7" d="M76.26,99.88H69.08L30.86,89.27a1.49,1.49,0,0,1-1.49-1.49v-5.5a1.49,1.49,0,0,1,1.49-1.49h45.4"/><path class="cls-2" d="M76.26,99.88h7.18l38.21-10.61a1.49,1.49,0,0,0,1.49-1.49v-5.5a1.49,1.49,0,0,0-1.49-1.49H76.26"/><path class="cls-3" d="M76.26,99.88h7.18l38.21-10.61a1.49,1.49,0,0,0,1.49-1.49v-5.5a1.49,1.49,0,0,0-1.49-1.49H76.26"/><path class="cls-8" d="M76.26,99.88h7.18l38.21-10.61a1.49,1.49,0,0,0,1.49-1.49v-5.5a1.49,1.49,0,0,0-1.49-1.49H76.26"/><path class="cls-5" d="M76.26,99.88h7.18l38.21-10.61a1.49,1.49,0,0,0,1.49-1.49v-5.5a1.49,1.49,0,0,0-1.49-1.49H76.26"/><path class="cls-6" d="M76.26,99.88h7.18l38.21-10.61a1.49,1.49,0,0,0,1.49-1.49v-5.5a1.49,1.49,0,0,0-1.49-1.49H76.26"/><path class="cls-9" d="M76.26,99.88h7.18l38.21-10.61a1.49,1.49,0,0,0,1.49-1.49v-5.5a1.49,1.49,0,0,0-1.49-1.49H76.26"/><path class="cls-10" d="M79.9,97a.65.65,0,0,1-.65.65h-6a.64.64,0,0,1-.63-.65v-.79a.64.64,0,0,1,.63-.64h6a.65.65,0,0,1,.65.64Z"/><path class="cls-11" d="M79.9,106a.64.64,0,0,1-.65.63h-6a.63.63,0,0,1-.63-.63V98.28a.64.64,0,0,1,.63-.64h6a.65.65,0,0,1,.65.64Z"/><path class="cls-12" d="M79.9,94.89a.64.64,0,0,1-.65.64h-6a.63.63,0,0,1-.63-.64V92.35a.63.63,0,0,1,.63-.63h6a.64.64,0,0,1,.65.63Z"/><rect class="cls-13" x="31.56" width="89.39" height="85.67"/><rect class="cls-14" x="66.94" width="18.63" height="85.67"/><path class="cls-15" d="M152.51,184.94A75.93,75.93,0,1,1,76.58,109,75.93,75.93,0,0,1,152.51,184.94Z"/><path class="cls-16" d="M151.87,181.72a75.94,75.94,0,1,1-75.93-75.93A75.94,75.94,0,0,1,151.87,181.72Z"/><path class="cls-17" d="M138.4,138.56A75.92,75.92,0,0,1,12.18,223,75.93,75.93,0,1,0,138.4,138.56Z"/><circle class="cls-18" cx="76.58" cy="184.94" r="50.84" transform="translate(-118.35 230.45) rotate(-80.65)"/><path class="cls-19" d="M126.77,181.72a50.84,50.84,0,1,1-50.83-50.83A50.84,50.84,0,0,1,126.77,181.72Z"/><path class="cls-20" d="M114.67,151.49a49.32,49.32,0,0,1,14.69,34.76c.19,27.69-22.66,50.3-51,50.49a51.29,51.29,0,0,1-49-34q-8,4.84-15.81,9.82c10.52,24.84,35.66,42.25,64.91,42.05,38.51-.26,69.52-30.94,69.26-68.53A66.8,66.8,0,0,0,130,141.22Q122.39,146.48,114.67,151.49Z"/><path class="cls-21" d="M21.88,181.72a54,54,0,0,1,92.9-37.57c5.43-3.57,10.83-7.21,16.14-11A73.35,73.35,0,0,0,8,209.28q8.28-5.33,16.71-10.46A53.76,53.76,0,0,1,21.88,181.72Z"/><path class="cls-22" d="M5.52,161.14C15.66,131,44.79,109.26,79.15,109.26a79.1,79.1,0,0,1,15.5,1.54A73.31,73.31,0,0,0,5.52,161.14Z"/><path class="cls-23" d="M122.9,182.1c0-.13,0-.25,0-.38a47,47,0,0,0-93.95,0q0,1.4.09,2.76C44.33,175.12,77.47,161.73,122.9,182.1Z"/><path class="cls-23" d="M122.9,182.1c0-.13,0-.25,0-.38a47,47,0,0,0-93.95,0q0,1.4.09,2.76C44.33,175.12,77.47,161.73,122.9,182.1Z"/><path class="cls-24" d="M75.94,138a54,54,0,0,1,35.36,12.86,46.95,46.95,0,0,0-70.73,0A54.06,54.06,0,0,1,75.94,138Z"/><polygon class="cls-25" points="111.11 137.6 101.36 123.35 112.7 136.07 115.55 125.5 114.9 136.11 128.68 127.08 116.43 137.71 128.05 140.84 116.39 139.91 127.62 155.96 114.8 141.44 112.09 151.49 112.6 141.4 100 148.64 111.06 139.8 103.89 137.87 111.11 137.6"/></g></g></g></svg>